<svg xmlns="http://www.w3.org/2000/svg" xmlns:xlink="http://www.w3.org/1999/xlink" width="24" height="24" viewBox="0 0 24 24">
  <defs>
    <clipPath id="clip-path">
      <rect id="矩形_284" data-name="矩形 284" width="24" height="24" transform="translate(300 752)" fill="#fff" stroke="#707070" stroke-width="1"/>
    </clipPath>
    <clipPath id="clip-path-2">
      <rect id="SVGID" width="22" height="24" transform="translate(0 0)" fill="#0a253a"/>
    </clipPath>
  </defs>
  <g id="pay-prodoct-icon" transform="translate(-300 -752)" clip-path="url(#clip-path)">
    <g id="组_371" data-name="组 371" transform="translate(-385 505)">
      <g id="组_370" data-name="组 370" transform="translate(686 247)" clip-path="url(#clip-path-2)">
        <path id="路径_1149" data-name="路径 1149" d="M800.781,752.714c.053-.048.1-.1.146-.145l.011-.016c-.2.195-.207.211-.157.16Zm0,0" transform="translate(-796.14 -731.876)" fill="#0a253a"/>
        <path id="路径_1150" data-name="路径 1150" d="M694.378,446.312l-6.256-3.352-.021-.011a1.863,1.863,0,0,0-.835-.212,1.26,1.26,0,0,0-.907.364,1.29,1.29,0,0,0-.361.919v9.043a2.106,2.106,0,0,0,.411,1.171,2.742,2.742,0,0,0,1,.881l6.256,3.354.017.01h.006a1.843,1.843,0,0,0,.831.214,1.26,1.26,0,0,0,.907-.364,1.291,1.291,0,0,0,.361-.917v-9.042a2.116,2.116,0,0,0-.41-1.173,2.779,2.779,0,0,0-1-.881v0Zm13.227-3.212a1.257,1.257,0,0,0-.9-.364,1.871,1.871,0,0,0-.833.212l-6.279,3.365a2.786,2.786,0,0,0-1,.881,2.12,2.12,0,0,0-.409,1.173v9.043a1.289,1.289,0,0,0,.361.917,1.259,1.259,0,0,0,.905.364h0a1.912,1.912,0,0,0,.833-.214l6.251-3.363a2.788,2.788,0,0,0,1-.881,2.118,2.118,0,0,0,.408-1.174l.023-9.04a1.294,1.294,0,0,0-.361-.919Zm0,0" transform="translate(-685.999 -434.73)" fill="#0a253a"/>
        <path id="路径_1151" data-name="路径 1151" d="M742.965,253.543a1.331,1.331,0,0,0,.879-1.168,1.316,1.316,0,0,0-.877-1.142l-7.076-3.277a3.4,3.4,0,0,0-1.382-.271,3.494,3.494,0,0,0-1.462.3l-7.153,3.416a1.332,1.332,0,0,0-.877,1.169,1.314,1.314,0,0,0,.875,1.142l7.076,3.275a3.083,3.083,0,0,0,.954.249l-.025.024h.455a3.487,3.487,0,0,0,1.464-.3l7.149-3.414Zm0,0" transform="translate(-723.446 -247.656)" fill="#0a253a"/>
      </g>
    </g>
  </g>
</svg>
